<?xml version="1.0" encoding="UTF-8"?>
<svg preserveAspectRatio="none" version="1.1" viewBox="0 0 508 285.75" xmlns="http://www.w3.org/2000/svg" xmlns:cc="http://creativecommons.org/ns#" xmlns:dc="http://purl.org/dc/elements/1.1/" xmlns:rdf="http://www.w3.org/1999/02/22-rdf-syntax-ns#">
<metadata>
<rdf:RDF>
<cc:Work rdf:about="">
<dc:format>image/svg+xml</dc:format>
<dc:type rdf:resource="http://purl.org/dc/dcmitype/StillImage"/>
<dc:title/>
</cc:Work>
</rdf:RDF>
</metadata>
<path d="m141.46 27.328c-0.4228 0.0023-0.85257 0.0048-1.2905 0.0096 0.66208 0.0048 1.0837 0.0023 1.2893-0.0096m245.23 0.65187c-0.43674-0.0072-0.86303-0.01196-1.287-0.01675 0.20676 0.01197 0.62724 0.01914 1.2858 0.01675" fill="#9e7835" stroke-width="1.1787"/>
<path d="m133.24 27.401c-0.3926 0.0023-0.79333 0.0048-1.2022 0.0096 0.61679 0.0048 1.0106 0.0012 1.2022-0.0096m261.59 0.67938c-0.40654-0.0072-0.8038-0.01197-1.1929-0.01675 0.18817 0.01197 0.57844 0.01675 1.1929 0.01675" fill="#a27c3b" stroke-width="1.1787"/>
<path d="m3.5804 28.495c-9.5525-0.96883-13.919 0.2751-19.47 2.1254-4.6473 2.5513 32.076 1.8204 39.253 1.2463 7.1783-0.57412-10.232-2.4041-19.785-3.3718" fill="#976d28" stroke-width="1.1787"/>
<path d="m341.75 42.43c-46.883-4.2497-28.682-6.5761-64.955-5.9087-30.151 1.1578-39.469 5.4326-87.428 8.9384-22.362 1.6578-33.163 2.635-38.891 4.7903 36.109 5.5044 79.217 5.0487 99.664 7.2363 6.9484 0.30381 16.26 0.01794 22.655 0.16147 6.4233-0.04545 13.132-0.15788 20.153-0.35165 39.335-6.3668 88.562 1.5119 103.96-5.1097-7.6871-7.0342-31.446-8.6812-55.156-9.7565" fill="#9e7835" stroke-width="1.1787"/>
<path d="m340.24 43.498c-43.79-4.0595-36.191-3.5847-64.074-5.1384-28.249 1.1124-36.441 3.9495-81.265 7.3141-12.236 1.7965-47.331 4.6241-36.296 4.5619 48.066-1.1183 75.833 2.8216 94.884 4.8597 6.5674 0.28228 12.564-0.0048 18.603 0.12559 6.0598-0.03349 13.407 0.78703 20.039 0.61 52.481-6.0701 98.614 1.6063 96.66-3.788 3.9307-2.5297-26.269-6.4792-48.553-8.5437" fill="#a27c3b" stroke-width="1.1787"/>
<path d="m402.91 41.979c-97.355-6.7507-52.546-8.3188-134.65-11.327-62.327 1.6626-81.296 8.2243-180.31 13.434-46.168 2.4627-69.057 8.9611-80.755 12.267 75.151 8.6453 167.23-0.36481 209.71 3.0967 14.4 0.49757 31.692 4.0021 44.94 4.2521 13.285-0.04187 26.858-0.64589 41.367-0.9174 50.44-2.9484 108.05 0.86238 152.6 2.0525h38.61c10.939-0.488 19.857-1.5609 26.006-3.5524 39.02-1.1004-68.356-17.55-117.51-19.306" fill="#9e7835" stroke-width="1.1787"/>
<path d="m405.09 44.031c-90.948-6.4469-80.193-8.0329-138.02-10.546-58.397 1.6016-75.587 9.6787-168.12 14.688-25.194 2.7211-94.158 8.0425-71.323 7.9947 99.401-1.531 154.05-2.0621 193.64 1.1638 13.611 0.46169 26.1 4.4459 38.61 4.6695 12.541-0.02631 27.76-2.3228 41.467-2.5716 100.72-2.5357 206.35 8.7063 201.9 0.37079 7.9566-3.8885-51.884-12.488-98.154-15.769" fill="#a58143" stroke-width="1.1787"/>
<path d="m271.88 40.614c-26.053 2.2726-57.946 2.1936-55.382 8.1334 26.655 4.9339 33.245 3.8586 53.651 5.5188 20.818-1.336 31.995 0.4581 59.965-4.0476 5.7415-8.3451-38.495-8.6669-58.229-9.6046" fill="#976d28" stroke-width="1.1787"/>
<path d="m271.79 41.374c-22.323 1.3217-54.745 1.8803-49.644 6.911 10.774 3.361 27.064 2.9005 48.064 4.4734 21.389-1.2403 43.599 0.0933 55.284-3.0907 10.128-6.6-36.016-8.1155-53.703-8.2937" fill="#a27c3b" stroke-width="1.1787"/>
<path d="m271.67 42.061c-17.853 1.909-39.864-0.88152-36.284 5.0092-0.79681 1.6351 23.433 4.8071 34.821 5.4817 11.557-0.49518 36.468-0.33371 49.212-3.8036 6.0075-5.4446-30.207-6.3991-47.749-6.6873" fill="#976d28" stroke-width="1.1787"/>
<path d="m271.59 42.907c-15.208 1.3815-35.817-0.10645-34.007 3.8813 0 1.4018 18.705 4.3382 32.732 5.1336 14.216-0.57412 35.126-0.13157 44.089-3.7258 4.048-3.9495-26.976-4.9566-42.815-5.2891" fill="#9e7835" stroke-width="1.1787"/>
<path d="m272.75 43.94c-11.612 0.49997-24.282 0.68656-23.08 3.471 5.5371 1.7283 11.74 2.8144 20.874 3.4519 9.2889-0.49279 24.346-1.4808 30.353-3.117 1.9723-2.7594-16.698-3.1254-28.149-3.806" fill="#976d28" stroke-width="1.1787"/>
<path d="m271.47 44.242c-9.3736 0.47724-19.235 1.049-18.335 3.1445 4.7182 1.4712 9.966 1.9137 17.474 2.4424 7.6418-0.41026 19.545-0.76789 24.658-2.1637 1.4868-2.0752-14.582-2.7988-23.798-3.4232" fill="#9e7835" stroke-width="1.1787"/>
<path d="m274.88 46.397a114.57 117.98 0 0 0-3.7518-0.25118c-1.6262 0.06219-2.9422 0.12798-3.8157 0.19137-3.5892 0.26912-1.0535 0.88271 3.5718 1.5585 4.8018-0.60163 7.5047-1.1734 3.9945-1.4987m267.02-14.334c-5.1073-1.8779-9.1727-3.1433-18.952-2.2247-9.7756 0.9174-27.616 2.6565-20.577 3.2677 7.0343 0.61001 43.564 1.5298 39.527-1.043" fill="#976d28" stroke-width="1.1787"/>
<path d="m216.79 126.25c0.57612 4e-3 1.1395 7e-3 1.6947 0.0101a45.161 46.504 0 0 0-1.6947-0.0101m1.6912-47.249c-0.55405 0.0022-1.1186 0.0045-1.6947 0.01006 0.86999 0.0045 1.4241 0.0022 1.6959-0.01006m320.47 46.63c0.55406-2e-3 1.1151-0.0101 1.69-0.0143a46.487 47.87 0 0 0-1.69 0.0143m1.6924-45.986c-0.57613-0.0045-1.1372-0.01196-1.6912-0.0143 0.26948 0.0143 0.82121 0.01676 1.69 0.0143" fill="#9e7835" stroke-width="1.1787"/>
<path d="m206.09 126.19c0.53664 4e-3 1.064 7e-3 1.5797 0.0101-0.25206-0.012-0.76895-0.0143-1.5797-0.0101m1.575-47.129c-0.51572 0.0022-1.0431 0.0045-1.5797 0.01006a39.19 40.356 0 0 0 1.5797-0.01006m343.65 46.45a41.568 42.804 0 0 0-1.5681 0.0155l1.5681-0.0143m0-45.764c-0.53431-0.0067-1.0535-0.01196-1.5681-0.01441 0.25089 0.01196 0.76545 0.01676 1.5681 0.01441" fill="#a27c3b" stroke-width="1.1787"/>
<path d="m47.674 116.33c-23.483 0.33013-66.544 2.3276-81.665 5.0822-4.7008 2.9759 43.162 7.4157 59.845 8.0042 25.118-1.9389 52.003-0.46049 79.382-6.7986 2.7506-4.6241-32.564-2.8467-57.565-6.2878m-21.811-40.501c-16.686 0.58847-64.548 5.0284-59.845 8.0042 15.122 2.7546 58.181 4.7532 81.666 5.0834 25-3.4411 60.314-1.6638 57.564-6.289-27.378-6.3381-54.263-4.8597-79.381-6.7986" fill="#976d28" stroke-width="1.1787"/>
<path d="m46.946 116.99c-21.137 0.29543-65.001 2.3898-78.614 4.8681-4.235 2.6792 43.587 6.6144 58.602 7.1466 35.075-2.7067 59.449-1.0813 75.45-6.6754 2.2394-3.7605-36.302-2.4568-55.438-5.3393m-20.005-40.739c-15.015 0.53226-62.838 4.4674-58.603 7.1478 13.612 2.4783 57.477 4.5714 78.613 4.8669 19.139-2.8838 57.679-1.5776 55.44-5.3381-16.005-5.5965-40.376-3.9686-75.452-6.6766" fill="#9e7835" stroke-width="1.1787"/>
<path d="m45.312 118.28c-18.064 0.25358-52.181 1.9293-63.808 4.0476-3.6194 2.2893 35.817 4.5392 48.652 4.9937 29.979-2.3108 44.28-1.6446 56.316-4.4339 2.1221-3.556-23.08-3.904-41.16-4.6073m-15.165-40.346c-12.835 0.45451-52.272 2.7032-48.652 4.9937 11.629 2.1171 45.745 3.794 63.808 4.0464 18.081-0.7021 43.284-1.0502 41.16-4.6061-12.037-2.7893-26.337-2.1231-56.316-4.4339" fill="#976d28" stroke-width="1.1787"/>
<path d="m44.874 118.7c-16.259 0.22725-47.013 1.8886-57.48 3.794-3.2605 2.0609 32.284 3.9339 43.836 4.3418 26.983-2.0812 39.85-1.4796 50.687-3.9914 1.7214-2.8921-23.722-4.1014-37.042-4.1444m-13.649-40.279c-11.552 0.40907-47.095 2.2809-43.834 4.3454 10.467 1.9042 41.222 3.5643 57.48 3.7916 13.321-0.044247 38.763-1.2523 37.042-4.1445-10.837-2.5118-23.705-1.9101-50.687-3.9913" fill="#9e7835" stroke-width="1.1787"/>
<path d="m11.746 122.97c7.291 1.8504 13.027 3.0943 25.576 2.1255 12.549-0.96644 35.424-2.7977 25.992-3.3706-9.4294-0.57413-57.675-1.3061-51.569 1.2451m25.577-42.803c-12.55-0.96882-18.285 0.2751-25.577 2.1255-6.1074 2.5513 42.138 1.818 51.569 1.2451 9.4317-0.57412-13.441-2.4041-25.992-3.3706" fill="#976d28" stroke-width="1.1787"/>
<path d="m396.26 88.186c-39.611 1.1602-51.851 5.4338-114.86 8.9384-29.379 1.6602-43.573 2.6362-51.096 4.7915 2.143 0.24878 4.307 0.48561 6.4837 0.71048-2.1767 0.22606-4.3407 0.46288-6.4837 0.71047 7.5245 2.1554 21.716 3.1338 51.096 4.7915 63.006 3.5045 75.245 7.7806 114.86 8.9396 47.652 0.66503 23.744-1.6602 85.334-5.9111 29.253-1.0083 58.565-2.5237 70.39-8.5305-11.825-6.0068-41.136-7.5222-70.39-8.5305-61.589-4.2497-37.68-6.5749-85.334-5.9099" fill="#9e7835" stroke-width="1.1787"/>
<path d="m395.44 90.025c-37.111 1.1124-47.877 3.9495-106.76 7.3129-16.076 1.7977-62.181 4.6253-47.681 4.5631 26.237-0.46528 47.873-0.0562 65.995 0.72603-18.121 0.78343-39.757 1.1913-65.995 0.72841-14.5-0.0622 31.603 2.7654 47.681 4.5607 58.888 3.3646 69.652 6.2005 106.76 7.3153 36.629-1.5549 26.643-1.0801 84.174-5.1408 25.37-1.7882 58.548-4.9949 63.592-7.4636-5.0434-2.4675-38.221-5.6743-63.592-7.4636-57.53-4.0595-47.544-3.5847-84.174-5.1384" fill="#a27c3b" stroke-width="1.1787"/>
<path d="m389.81 92.282c-34.228 2.2726-76.128 2.1948-72.761 8.1334 6.6231 0.93295 12.303 1.6506 17.341 2.214-5.0376 0.56217-10.718 1.2798-17.342 2.2128-3.3662 5.9398 38.534 5.8608 72.763 8.1334 25.927-0.93654 84.041-1.2583 76.499-9.6046a570.86 587.84 0 0 0-6.3583-0.74158c2.0443-0.22726 4.1618-0.47365 6.3594-0.74158 7.5407-8.3463-50.575-8.668-76.5-9.6058" fill="#976d28" stroke-width="1.1787"/>
<path d="m389.67 93.039c-29.329 1.3229-71.922 1.8814-65.22 6.9134 6.0691 1.4401 13.47 2.1769 22.119 2.6756-8.6489 0.49758-16.05 1.2356-22.119 2.6768-6.6998 5.0296 35.894 5.5881 65.221 6.9098 23.233-0.17822 83.856-1.6925 70.55-8.2925-2.6832-0.55738-5.7891-0.976-9.2389-1.2954 3.4498-0.31816 6.5558-0.7368 9.2389-1.2918 13.307-6.6024-47.317-8.1167-70.551-8.2961" fill="#a27c3b" stroke-width="1.1787"/>
<path d="m389.55 93.726c-23.456 1.909-52.374-0.88151-47.67 5.0104-0.65627 1.025 11.598 2.6517 24.521 3.8909-12.923 1.238-25.178 2.8658-24.521 3.8897-4.7043 5.8919 24.214 3.1015 47.67 5.0116 23.045-0.29066 70.623-1.2439 62.733-6.6885-4.8762-1.0095-11.107-1.7128-17.862-2.2128 6.7555-0.50116 12.986-1.2033 17.862-2.2128 7.8915-5.4446-39.685-6.3991-62.733-6.6885" fill="#976d28" stroke-width="1.1787"/>
<path d="m389.4 94.576c-19.981 1.3803-47.054-0.10648-44.678 3.8813 0 1.0442 13.671 2.9436 28.265 4.172-14.595 1.2272-28.265 3.1266-28.265 4.172-2.3765 3.9878 24.697 2.4998 44.678 3.8813 20.808-0.33372 61.566-1.3396 56.244-5.2879-4.9366-1.5071-12.626-2.3049-21.275-2.7654 8.6489-0.46049 16.339-1.2583 21.275-2.7654 5.3199-3.9495-35.436-4.9554-56.244-5.2879" fill="#9e7835" stroke-width="1.1787"/>
<path d="m388.06 102.73c-11.999 0.63512-20.15 1.7224-27.422 3.4507-1.5832 2.7845 15.065 2.9711 30.319 3.471 15.042-0.68057 39.57-1.0466 36.978-3.8059-7.8904-1.6363-27.673-2.6254-39.877-3.1158m2.8888-7.1179c-15.255 0.49996-31.902 0.68774-30.317 3.4722 7.2713 1.7272 15.422 2.8144 27.421 3.4507 12.204-0.4916 31.985-1.4796 39.877-3.117 2.5926-2.7582-21.936-3.1254-36.978-3.8059" fill="#976d28" stroke-width="1.1787"/>
<path d="m388.12 103.76c-9.8673 0.52987-16.759 0.97242-22.957 2.4424-1.1836 2.0956 11.773 2.6673 24.083 3.1457 12.109-0.62316 33.22-1.348 31.265-3.4244-6.7172-1.3958-22.355-1.7523-32.393-2.1637m1.1383-7.8535c-12.311 0.47843-25.267 1.0502-24.085 3.1457 6.1992 1.47 13.091 1.9137 22.957 2.4424 10.038-0.41026 25.676-0.76789 32.394-2.1625 1.9526-2.0764-19.157-2.8012-31.265-3.4256" fill="#9e7835" stroke-width="1.1787"/>
<path d="m388.47 105.69c-6.0726 0.67698-9.405 1.2882-4.6915 1.5585 1.1488 0.0633 2.876 0.12918 5.0132 0.19138 2.1059-0.0874 3.8064-0.17344 4.9284-0.25118 4.6102-0.32414 1.0605-0.89707-5.2502-1.4999m5.2502-7.6286c-1.122-0.079-2.8226-0.16387-4.9273-0.25118-2.1372 0.06101-3.8656 0.12798-5.0144 0.19138-4.7136 0.26911-1.3822 0.88151 4.6926 1.5573 6.3095-0.60163 9.8592-1.1722 5.2502-1.4975" fill="#976d28" stroke-width="1.1787"/>
<path d="m299.7-23.928c-0.15101 0.01196-0.4681 0.01555-0.95943 0.01073 0.32522-6e-3 0.64465-0.0084 0.95943-0.01073 3.1466-0.2452-62.781-4.1959-77.352-6.1766a544.94 561.15 0 0 0-6.7312-0.305c-2.2034 0.08492-4.4476 0.18659-6.7323 0.305-14.569 1.9807-80.498 5.9314-77.352 6.1766 0.31477 0.0023 0.63537 0.0048 0.96059 0.01073-0.49249 0.0048-0.80727 0.0023-0.96059-0.01073-8.1459-0.05263-11.011 0.70569 29.889 5.0044 29.691 3.1194 38.991 7.6023 54.198 9.7816 15.202-2.1793 24.503-6.6622 54.193-9.7816 40.904-4.2999 38.037-5.0571 29.889-5.0044" fill="#9e7835" stroke-width="1.1787"/>
<path d="m132.48-23.928c-0.32638-0.0048-0.64697-0.0072-0.96175-0.0096 0.15333 0.01195 0.4681 0.01435 0.96175 0.0096m167.22 0c-0.31361 0.0023-0.63304 0.0048-0.95943 0.01073 0.49133 0.0048 0.80727 0.0023 0.95943-0.01073m182.76 0.62795c-0.32523-0.0072-0.6435-0.01196-0.95827-0.01675 0.15216 0.01435 0.46461 0.01675 0.95943 0.01675" fill="#9e7835" stroke-width="1.1787"/>
<path d="m138.55-23.855c-0.30432-0.0048-0.604-0.0072-0.89671-0.0096 0.14286 0.01196 0.43674 0.01436 0.89671 0.0096m155-0.02392c-0.2927 0.0023-0.59122 0.0048-0.89671 0.0096 0.46114 0.0048 0.75384 0.0012 0.89671-0.0096" fill="#a27c3b" stroke-width="1.1787"/>
<path d="m293.55-23.879c-0.14287 0.01196-0.43557 0.01436-0.89671 0.0096 0.30549-0.0048 0.60401-0.0072 0.89671-0.0096 2.9422-0.23563-58.522-3.8634-72.099-5.7101-1.9862-0.09928-3.9376-0.18659-5.8554-0.26194-1.9189 0.07535-3.8703 0.16267-5.8565 0.26314-13.576 1.8444-75.042 5.4733-72.099 5.7089 0.2927 0.0023 0.59238 0.0048 0.89671 0.0096-0.45998 0.0048-0.75384 0.0012-0.89671-0.0096-7.5953-0.0598-10.266 0.64589 27.892 4.7604 27.365 2.9508 36.176 7.1239 50.064 9.2278 13.889-2.1039 22.699-6.2771 50.065-9.2278 38.159-4.1145 35.487-4.8202 27.89-4.7604m194.95 0.69971-0.89206-0.01794c0.14055 0.01196 0.4321 0.01794 0.89206 0.01794" fill="#a27c3b" stroke-width="1.1787"/>
<path d="m215.59-25.592c-9.9161 0.78942-13.417 0.60283-30.301 4.6588-1.7354 5.1396 14.27 4.27 30.301 6.1778 16.032-1.909 32.038-1.0382 30.3-6.1778-16.885-4.0547-20.387-3.8693-30.3-4.6588" fill="#976d28" stroke-width="1.1787"/>
<path d="m215.59-25.254c-12.326 1.0968-21.048 1.8731-28.021 4.721-3.3209 4.282 13.232 3.8801 28.021 5.2401 14.786-1.36 31.341-0.95926 28.02-5.2401-6.9727-2.8467-15.695-3.6241-28.02-4.721" fill="#a27c3b" stroke-width="1.1787"/>
<path d="m215.59-25.037c-6.5256 0.72722-13.16 2.007-19.846 4.7365-1.1197 3.3168 8.873 3.3407 19.846 4.3585 10.973-1.0179 20.965-1.0406 19.845-4.3585-6.6859-2.7295-13.321-4.0093-19.845-4.7365" fill="#976d28" stroke-width="1.1787"/>
<path d="m215.59-24.507c-7.4885 0.62914-13.501 1.5848-18.228 4.4973-0.84793 2.5106 8.614 2.763 18.228 3.5117 9.6141-0.74756 19.073-1.0011 18.226-3.5117-4.7275-2.9125-10.74-3.8682-18.226-4.4973" fill="#9e7835" stroke-width="1.1787"/>
<path d="m215.59-22.649c-3.5834 0.41983-6.4895 0.98199-9.1971 2.0872-0.67602 1.9987 3.5462 2.9842 9.1971 3.5895 5.6498-0.60522 9.8731-1.5908 9.1948-3.5883-2.7064-1.1064-5.6126-1.6685-9.1948-2.0884" fill="#976d28" stroke-width="1.1787"/>
<path d="m215.59-22.191c-2.4892 0.35883-4.6171 0.84683-6.6208 1.6662-0.46346 1.3695 2.5333 2.3623 6.6208 3.0321 4.0863-0.66981 7.0831-1.6626 6.6208-3.0321-2.006-0.81932-4.1339-1.3073-6.6208-1.6662m-30.738 35.77h61.519c-6.011-0.57173-15.789-1.3468-30.758-2.391-14.97 1.0442-24.748 1.8193-30.761 2.3922" fill="#9e7835" stroke-width="1.1787"/>
<path d="m194.86 13.579h41.495c-4.5068-0.43298-11.207-0.98917-20.747-1.6973-9.5409 0.70808-16.242 1.2643-20.748 1.6984" fill="#a58143" stroke-width="1.1787"/>
<path d="m448.96-8.8286c-34.939-4.2485-21.377-6.5761-48.407-5.9087-22.47 1.159-29.414 5.4326-65.159 8.9384-16.665 1.659-24.718 2.635-28.984 4.7903 26.912 5.5044 59.037 5.0499 74.277 7.2363 5.1805 0.30381 12.118 0.017945 16.887 0.16147 4.7856-0.044258 9.786-0.15788 15.016-0.35165 29.317-6.3668 66.002 1.5131 77.477-5.1097-5.7287-7.033-23.435-8.6812-41.105-9.7565" fill="#9e7835" stroke-width="1.1787"/>
<path d="m447.82-7.7665c-32.639-4.0595-26.972-3.5859-47.751-5.1396-21.055 1.1124-27.16 3.9495-60.566 7.3141-9.1181 1.7965-35.276 4.6241-27.049 4.5619 35.823-1.1171 56.517 2.8216 70.715 4.8597 4.8924 0.28228 9.3632-0.0048 13.863 0.12559 4.5161-0.033487 9.9916 0.78703 14.935 0.61 39.113-6.0701 73.496 1.6063 72.038-3.788 2.9306-2.5285-19.577-6.4792-36.186-8.5437" fill="#a27c3b" stroke-width="1.1787"/>
<path d="m34.318-10.661c-14.709 0.93773-47.676 1.2595-43.398 9.6046 20.845 4.5057 29.171 2.7115 44.689 4.0476 15.208-1.6602 20.118-0.58489 39.982-5.5188 1.9107-5.9398-21.859-5.8608-41.273-8.1334m362.55 0c-19.418 2.2726-43.187 2.1936-41.278 8.1334 19.866 4.9339 24.777 3.8586 39.983 5.5188 15.516-1.336 23.843 0.4581 44.689-4.0476 4.2803-8.3451-28.688-8.6657-43.398-9.6046" fill="#976d28" stroke-width="1.1787"/>
<path d="m34.405-9.8895c-13.181 0.17941-47.571 1.6937-40.023 8.2937 8.7093 3.184 25.26 1.8503 41.201 3.0895 15.652-1.5729 27.791-1.1124 35.822-4.4722 3.8006-5.0307-20.362-5.5881-37-6.911m362.41 0c-16.638 1.3229-40.799 1.8803-37 6.911 8.0286 3.361 20.169 2.9005 35.822 4.4734 15.94-1.2403 32.488 0.093298 41.2-3.0907 7.5477-6.6-26.842-8.1143-40.022-8.2937" fill="#a27c3b" stroke-width="1.1787"/>
<path d="m34.464-9.2137c-13.074 0.28945-40.062 1.2439-35.587 6.6861 9.4991 3.4722 28.064 3.3096 36.678 3.806 8.4874-0.67579 26.545-3.8478 25.951-5.4817 2.6681-5.8919-13.736-3.1027-27.043-5.0116m362.26 0.00123c-13.305 1.9078-29.711-0.88152-27.042 5.0104-0.59471 1.6339 17.464 4.8059 25.951 5.4817 8.614-0.49638 27.18-0.33491 36.678-3.8048 4.4766-5.4446-22.512-6.3991-35.587-6.6873" fill="#976d28" stroke-width="1.1787"/>
<path d="m34.551-8.3693c-11.801 0.33132-34.922 1.3384-31.908 5.2867 6.6789 3.5954 22.262 3.1529 32.859 3.727 10.454-0.79659 24.395-3.7318 24.395-5.1336 1.3486-3.9866-14.011-2.501-25.345-3.8801m362.11 0c-11.336 1.3791-26.693-0.10764-25.345 3.8801 0 1.4018 13.941 4.337 24.395 5.1336 10.596-0.57412 26.18-0.13157 32.858-3.7282 3.0177-3.9471-20.104-4.9542-31.908-5.2867" fill="#9e7835" stroke-width="1.1787"/>
<path d="m33.677-7.3323c-8.5339 0.68057-22.448 1.0466-20.977 3.806 4.4754 1.6374 15.698 2.6254 22.621 3.117 6.8066-0.63632 11.43-1.7224 15.555-3.4507 0.89904-2.7845-8.5455-2.9723-17.2-3.4722m363.87 0c-8.6558 0.49996-18.099 0.68655-17.202 3.4722 4.1258 1.7272 8.7499 2.8144 15.557 3.4507 6.9228-0.49159 18.146-1.4796 22.621-3.117 1.4705-2.7594-12.442-3.1254-20.976-3.806" fill="#976d28" stroke-width="1.1787"/>
<path d="m34.639-7.0189c-6.8694 0.62197-18.843 1.348-17.737 3.4244 3.8099 1.3946 12.682 1.7523 18.378 2.1625 5.5963-0.52987 9.5061-0.97122 13.022-2.4424 0.67137-2.0955-6.6789-2.6673-13.663-3.1457m361.94 0.00123c-6.982 0.47724-14.333 1.049-13.662 3.1457 3.5172 1.47 7.4269 1.9125 13.023 2.4412 5.6939-0.41026 14.566-0.76789 18.376-2.1625 1.1081-2.0764-10.866-2.8012-17.737-3.4244" fill="#9e7835" stroke-width="1.1787"/>
<path d="m37.73-4.921a67.575 69.585 0 0 0-2.8446-0.19137 63.606 65.498 0 0 0-2.7947 0.25118c-2.6158 0.32414-0.60168 0.89707 2.977 1.4987 3.4463-0.67699 5.3373-1.2894 2.6623-1.5585m361.39 0.04904a63.984 65.887 0 0 0-2.7958-0.25118 67.503 69.511 0 0 0-2.8435 0.19137c-2.675 0.26912-0.78405 0.88152 2.6623 1.5573 3.5787-0.60163 5.5917-1.1734 2.977-1.4975" fill="#976d28" stroke-width="1.1787"/>
<path d="m24.578-48.12c0.31362-0.0023 0.63304-0.0048 0.9606-0.0096a14.527 14.959 0 0 0-0.9606 0.0096m167.19 0c0.32756 0.0048 0.64698 0.0072 0.9606 0.0096-0.15333-0.01196-0.46694-0.01436-0.9606-0.0096m182.76-0.62675c0.31361-0.0048 0.63188-0.0096 0.95711-0.01675a12.777 13.157 0 0 0-0.95711 0.01675" fill="#9e7835" stroke-width="1.1787"/>
<path d="m30.701-48.168c0.29271-0.0023 0.59123-0.0048 0.89671-0.0096a13.099 13.488 0 0 0-0.89671 0.0096m155-0.02512 0.89555 0.01073c-0.14171-0.01197-0.43557-0.01555-0.89555-0.01073m195.86-0.67579c-0.45881 0-0.75036 0.0036-0.89091 0.01555 0.29039-0.0023 0.58774-0.0096 0.89207-0.01435" fill="#a27c3b" stroke-width="1.1787"/>
<path d="m312.42 244.04c-54.882 4.2987-51.035 5.0559-40.105 5.0032 0.20675-0.0119 0.62723-0.0143 1.2893-0.01-0.4379 4e-3 -0.86768 4e-3 -1.2893 0.01-4.221 0.24639 84.242 4.1959 103.79 6.1778 87.494 3.3526 129.61-6.2974 158.92-10.683-57.11-2.635-67.955-10.825-116.28-11.52-48.328-0.69732-49.317 6.5582-106.32 11.022" fill="#9e7835" stroke-width="1.1787"/>
<path d="m272.32 249.04c0.42164-2e-3 0.85142-4e-3 1.2893-0.0101-0.66209-4e-3 -1.0826-2e-3 -1.2893 0.0101m-245.23-0.64589c0.43558 4e-3 0.86303 0.012 1.2858 0.0155-0.20559-0.012-0.62491-0.018-1.2858-0.0155" fill="#9e7835" stroke-width="1.1787"/>
<path d="m280.54 248.98c0.39144-2e-3 0.79334-4e-3 1.201-0.0101-0.61679-4e-3 -1.0106 0-1.201 0.0101" fill="#a27c3b" stroke-width="1.1787"/>
<path d="m317.98 244.22c-51.201 4.1145-47.616 4.8202-37.425 4.7604 0.19049-0.0119 0.58541-0.0143 1.2022-0.01-0.40887 4e-3 -0.8096 7e-3 -1.2022 0.01-3.9458 0.23683 78.525 3.8634 96.743 5.7101 81.566 3.0644 120.89-6.0785 148.24-10.246-53.234-2.4221-63.301-10.131-108.36-10.734-45.06-0.60283-46.02 6.2376-99.192 10.509m-297.81 4.0882c-0.18933-0.012-0.57961-0.0155-1.1941-0.0155 0.40654 7e-3 0.80379 0.0119 1.1941 0.0168" fill="#a27c3b" stroke-width="1.1787"/>
<path d="m344.49 246.04c35.875 6.4218 26.72 2.2116 78.019 8.0712 16.907-1.5549 51.322-6.5462 55.785-10.057-16.111-3.8538-51.758-5.935-76.783-6.3967-25.103 4.9733-59.953 1.9078-57.019 8.3834" fill="#976d28" stroke-width="1.1787"/>
<path d="m347.56 245.63c15.014 4.5691 36.068 3.8036 73.449 7.5928 16.001-0.74397 50.326-5.1719 54.85-9.2924-14.504-3.4675-51.231-5.1025-73.751-5.5152-20.399 4.0368-60.39 1.6016-54.548 7.216" fill="#a27c3b" stroke-width="1.1787"/>
<path d="m402.32 239.12c-19.03 3.44-45.911 1.6638-43.818 6.2878 20.84 6.3393 41.305 4.8597 60.424 6.7986 12.699-0.58847 49.13-5.0284 45.552-8.0042-11.511-2.7546-44.284-4.7521-62.161-5.0834" fill="#976d28" stroke-width="1.1787"/>
<path d="m402.88 239.78c-14.568 2.8838-43.905 1.5788-42.202 5.3393 12.185 5.5941 30.734 3.9686 57.434 6.6754 11.43-0.53106 47.83-4.4674 44.604-7.1466-10.36-2.4795-43.75-4.5714-59.836-4.8681" fill="#9e7835" stroke-width="1.1787"/>
<path d="m404.13 241.07c-13.762 0.70211-32.945 1.0502-31.333 4.6073 9.1646 2.7869 20.048 2.1219 42.87 4.4315 9.7674-0.45332 39.786-2.7032 37.03-4.9925-8.851-2.1171-34.82-3.794-48.568-4.0464" fill="#976d28" stroke-width="1.1787"/>
<path d="m404.45 241.49c-10.14 0.043-29.504 1.2523-28.195 4.1444 8.2504 2.5118 18.043 1.9102 38.582 3.9926 8.7929-0.40907 35.85-2.281 33.369-4.343-7.9682-1.9054-31.377-3.5667-43.755-3.794" fill="#9e7835" stroke-width="1.1787"/>
<path d="m390.43 244.51c-7.1783 0.57293 10.233 2.4041 19.787 3.3706 9.5502 0.96883 13.918-0.2751 19.467-2.1254 4.6497-2.5512-32.074-1.8192-39.253-1.2451" fill="#976d28" stroke-width="1.1787"/>
<path d="m141 218.73c-6.4222 0.0455-13.131 0.15908-20.15 0.35284-39.335 6.3668-88.562-1.513-103.96 5.1109 7.6883 7.033 31.446 8.68 55.156 9.7541 46.882 4.2497 28.682 6.5761 64.955 5.9087 30.151-1.1578 39.469-5.4314 87.427-8.9372 22.364-1.659 33.167-2.6362 38.894-4.7915-36.109-5.5044-79.217-5.0487-99.664-7.2351-6.9483-0.305-16.26-0.0168-22.656-0.16267" fill="#9e7835" stroke-width="1.1787"/>
<path d="m255.2 226.14c-48.066 1.1183-75.833-2.8216-94.884-4.8585-6.5662-0.28348-12.564 2e-3 -18.602-0.12678-6.0586 0.0335-13.408-0.78703-20.038-0.61001-52.482 6.0702-98.617-1.6063-96.66 3.7892-3.9318 2.5285 26.268 6.4792 48.553 8.5437 43.795 4.0595 36.191 3.5859 64.071 5.1396 28.25-1.1136 36.442-3.9507 81.266-7.3141 12.237-1.7977 47.331-4.6241 36.296-4.5631" fill="#a27c3b" stroke-width="1.1787"/>
<path d="m143.65 222.11c-20.818 1.336-31.995-0.45931-59.962 4.0464-5.7427 8.3463 38.495 8.6681 58.229 9.6046 26.053-2.2726 57.947-2.1936 55.384-8.1334-26.657-4.9339-33.246-3.8574-53.648-5.5176" fill="#976d28" stroke-width="1.1787"/>
<path d="m143.59 223.62c-21.389 1.2403-43.599-0.0957-55.284 3.0895-10.126 6.6 36.019 8.1155 53.704 8.2937 22.323-1.3217 54.744-1.8803 49.644-6.911-10.777-3.361-27.065-2.9005-48.065-4.4722" fill="#a27c3b" stroke-width="1.1787"/>
<path d="m143.56 223.82c-11.557 0.49517-36.468 0.33251-49.212 3.8036-6.0075 5.4434 30.207 6.3979 47.749 6.6861 17.853-1.9078 39.865 0.88272 36.284-5.0092 0.79797-1.635-23.432-4.8059-34.821-5.4805" fill="#976d28" stroke-width="1.1787"/>
<path d="m143.47 224.45c-14.217 0.57413-35.126 0.13157-44.089 3.727-4.048 3.9471 26.976 4.9542 42.815 5.2867 15.208-1.3791 35.817 0.10771 34.007-3.8801 0-1.4018-18.706-4.337-32.732-5.1336" fill="#9e7835" stroke-width="1.1787"/>
<path d="m143.24 225.51c-9.2889 0.4904-24.346 1.4784-30.352 3.1158-1.9735 2.7582 16.698 3.1254 28.148 3.806 11.611-0.49996 24.283-0.68775 23.078-3.471-5.5348-1.7284-11.739-2.8156-20.873-3.4519" fill="#976d28" stroke-width="1.1787"/>
<path d="m143.18 226.55c-7.643 0.41145-19.545 0.76789-24.657 2.1637-1.4868 2.0764 14.58 2.8012 23.798 3.4232 9.3702-0.47724 19.235-1.049 18.333-3.1445-4.7182-1.4712-9.9637-1.9137-17.473-2.4424" fill="#9e7835" stroke-width="1.1787"/>
<path d="m142.92 228.48c-4.8018 0.60163-7.5036 1.1734-3.9957 1.4975a114.49 117.9 0 0 0 3.7518 0.25117c1.6273-0.061 2.941-0.12678 3.8157-0.19136 3.5892-0.26913 1.0524-0.88153-3.5717-1.5573" fill="#976d28" stroke-width="1.1787"/>
<path d="m331.69 143.94c-25.686 1.9807-141.9 5.9314-136.36 6.1766 0.55407 2e-3 1.1186 4e-3 1.6947 0.0101-0.87 4e-3 -1.424 2e-3 -1.6958-0.0101-14.359-0.0526-19.412 0.70568 52.69 5.0044 74.889 4.4638 76.19 11.718 139.68 11.022 63.485-0.69493 77.731-8.8845 152.76-11.521-38.496-4.386-93.832-14.032-208.77-10.682m-83.671 48.431c-72.103 4.2999-67.049 5.0559-52.689 5.0044 0.27065-0.012 0.8247-0.0143 1.6947-0.0101-0.57728 4e-3 -1.1406 7e-3 -1.6958 0.0101-5.5429 0.2452 110.67 4.1959 136.36 6.1778 114.94 3.3514 170.28-6.2974 208.77-10.683-75.028-2.6362-89.276-10.826-152.76-11.521-63.493-0.69613-64.794 6.5582-139.68 11.022" fill="#9e7835" stroke-width="1.1787"/>
<path d="m197.02 150.13c-0.57613-4e-3 -1.1383-4e-3 -1.6935-0.0101 0.27064 0.012 0.8247 0.0143 1.6935 0.0101m-1.6912 47.253 1.6947-0.0112a45.157 46.5 0 0 0-1.6947 0.0112" fill="#9e7835" stroke-width="1.1787"/>
<path d="m207.72 150.19c-0.53663-4e-3 -1.0628-7e-3 -1.5797-0.0101 0.25321 0.012 0.76894 0.0143 1.5797 0.0101m-1.6041 47.128c0.51572-2e-3 1.0431-4e-3 1.5797-0.01a39.236 40.403 0 0 0-1.5797 0.01" fill="#a27c3b" stroke-width="1.1787"/>
<path d="m333.24 144.47c-23.936 1.8456-132.28 5.4733-127.1 5.7101 0.5169 2e-3 1.0431 4e-3 1.5797 0.0101-0.81077 4e-3 -1.3265 0-1.5797-0.0101-13.389-0.0598-18.095 0.64589 49.168 4.7604 69.86 4.2724 71.122 11.112 130.32 10.509 59.192-0.60282 72.421-8.3116 142.36-10.734-35.917-4.166-87.585-13.308-194.74-10.246m-77.952 48.089c-67.262 4.1146-62.557 4.8214-49.168 4.7604 0.25321-0.012 0.76777-0.0132 1.5797-8e-3 -0.53663 4e-3 -1.064 7e-3 -1.5797 0.0101-5.184 0.23563 103.16 3.8634 127.1 5.7089 107.16 3.0632 158.82-6.0797 194.74-10.247-69.937-2.4209-83.164-10.13-142.36-10.732-59.195-0.60283-60.457 6.2376-130.32 10.51" fill="#a27c3b" stroke-width="1.1787"/>
<path d="m290.13 153.13c-3.854 6.4756 41.933 3.4089 74.914 8.3834 32.875-0.46168 79.705-2.5429 100.87-6.3967-5.8658-3.5117-51.077-8.5018-73.286-10.058-67.393 5.8608-55.366 1.6506-102.5 8.0712m0 41.248c47.133 6.4206 35.107 2.2104 102.5 8.0712 22.209-1.5549 67.422-6.5462 73.286-10.059-21.167-3.8526-67.997-5.9326-100.87-6.3955-32.981 4.9745-78.767 1.9078-74.914 8.3834" fill="#976d28" stroke-width="1.1787"/>
<path d="m294.16 153.53c-7.6743 5.6144 44.863 3.178 71.661 7.216 29.589-0.41385 77.835-2.0477 96.891-5.5164-5.9448-4.1205-51.038-8.5472-72.062-9.2912-49.104 3.788-76.768 3.0225-96.491 7.5916m0 40.43c19.723 4.5691 47.39 3.8036 96.491 7.5916 21.022-0.74397 66.115-5.1707 72.062-9.2912-19.056-3.4687-67.302-5.1025-96.891-5.5164-26.799 4.0392-79.333 1.6028-71.661 7.216" fill="#a27c3b" stroke-width="1.1787"/>
<path d="m387.95 146.95c-25.117 1.9401-52.002 0.46049-79.381 6.7998-2.7505 4.6229 32.563 2.8467 57.564 6.2878 23.484-0.33013 66.541-2.3276 81.666-5.0834 4.7019-2.9759-43.162-7.4158-59.845-8.0042m59.839 45.583c-15.123-2.7546-58.181-4.752-81.666-5.0822-25 3.44-60.314 1.6626-57.564 6.2878 27.378 6.3393 54.263 4.8597 79.381 6.7986 16.686-0.58847 64.549-5.0272 59.845-8.0042" fill="#976d28" stroke-width="1.1787"/>
<path d="m386.87 147.37c-35.074 2.7079-59.448 1.0813-75.45 6.6766-2.2406 3.7617 36.298 2.4556 55.439 5.3381 21.137-0.29543 65-2.3886 78.613-4.8657 4.2362-2.6816-43.586-6.6168-58.602-7.149m58.588 45.61c-13.612-2.4783-57.477-4.5714-78.613-4.8681-19.14 2.8838-57.68 1.5788-55.44 5.3381 16.003 5.5965 40.376 3.9698 75.45 6.6766 15.014-0.53226 62.838-4.4674 58.603-7.1478" fill="#9e7835" stroke-width="1.1787"/>
<path d="m383.66 149.06c-29.979 2.3108-44.278 1.6434-56.316 4.4327-2.121 3.556 23.08 3.904 41.16 4.6073 18.062-0.25358 52.181-1.9293 63.812-4.0464 3.6182-2.2905-35.819-4.5404-48.652-4.9937m48.641 44.393c-11.631-2.1171-45.749-3.7928-63.812-4.0464-18.079 0.7033-43.28 1.0514-41.16 4.6073 12.039 2.7893 26.337 2.1219 56.316 4.4339 12.835-0.45451 52.272-2.7044 48.652-4.9949" fill="#976d28" stroke-width="1.1787"/>
<path d="m382.55 149.54c-26.983 2.0824-39.854 1.4808-50.687 3.9925-1.7214 2.8922 23.723 4.1014 37.042 4.1444 16.262-0.22726 47.015-1.8898 57.481-3.794 3.2604-2.0609-32.28-3.9351-43.836-4.3418m-13.648 40.277c-13.319 0.0442-38.763 1.2535-37.042 4.1456 10.835 2.5118 23.705 1.909 50.687 3.9914 11.552-0.40787 47.095-2.2798 43.834-4.343-10.466-1.9054-41.219-3.5667-57.48-3.794" fill="#9e7835" stroke-width="1.1787"/>
<path d="m402.03 153.41c-7.291-1.8504-13.027-3.0943-25.577-2.1254-12.549 0.96643-35.427 2.7976-25.992 3.3706 9.4306 0.57413 57.675 1.3061 51.569-1.2451m-51.561 39.431c-9.4317 0.57412 13.443 2.4041 25.993 3.373 12.549 0.96764 18.286-0.27749 25.576-2.1266 6.1074-2.5512-42.137-1.8192-51.569-1.2463m-326.21-27.993c-23.045 0.28827-70.622 1.2427-62.733 6.6861 4.8762 1.0107 11.106 1.714 17.862 2.2128-6.7567 0.50236-12.986 1.2045-17.862 2.2152-7.8915 5.4422 39.685 6.3967 62.733 6.6861 23.455-1.9078 52.374 0.88151 47.67-5.0104 0.65627-1.0238-11.597-2.6505-24.521-3.8897 12.924-1.2392 25.179-2.8658 24.52-3.8909 4.7042-5.8919-24.214-3.1002-47.67-5.0104" fill="#976d28" stroke-width="1.1787"/>
<path d="m69.051 169.58c2.3765-3.9866-24.697-2.4998-44.678-3.8813-20.807 0.33372-61.565 1.3396-56.243 5.2879 4.9354 1.5071 12.626 2.3049 21.275 2.7654-8.6489 0.46051-16.341 1.2583-21.275 2.7654-5.321 3.9495 35.439 4.9554 56.243 5.2879 19.981-1.3803 47.054 0.10648 44.678-3.8813 0-1.0442-13.67-2.9436-28.265-4.172 14.595-1.2272 28.265-3.1266 28.265-4.172" fill="#9e7835" stroke-width="1.1787"/>
<path d="m22.856 166.73c-15.042 0.68177-39.57 1.0478-36.978 3.8071 7.8904 1.6363 27.671 2.6242 39.877 3.117 11.999-0.63751 20.15-1.7248 27.422-3.4519 1.5832-2.7845-15.065-2.9711-30.321-3.471m2.8876 7.1203c-12.204 0.4904-31.985 1.4796-39.877 3.1158-2.5937 2.7594 21.936 3.1254 36.978 3.806 15.256-0.49997 31.904-0.68776 30.321-3.4711-7.2713-1.7284-15.423-2.8156-27.422-3.4507" fill="#976d28" stroke-width="1.1787"/>
<path d="m24.547 167.03c-12.107 0.62197-33.219 1.3468-31.265 3.4232 6.7172 1.3958 22.355 1.7523 32.395 2.1637 9.8662-0.52988 16.758-0.97242 22.957-2.4424 1.1836-2.0956-11.775-2.6673-24.086-3.1457m1.1372 7.8547c-10.038 0.41025-25.676 0.76668-32.394 2.1625-1.9537 2.0764 19.157 2.8012 31.265 3.4244 12.311-0.47845 25.268-1.049 24.086-3.1457-6.1992-1.4688-13.091-1.9125-22.958-2.4412" fill="#9e7835" stroke-width="1.1787"/>
<path d="m24.985 168.93c-2.1059 0.0862-3.8041 0.17224-4.9273 0.25118-4.6113 0.32295-1.0605 0.89587 5.249 1.4975 6.0737-0.67578 9.4073-1.2882 4.6926-1.5573-1.1488-0.0646-2.8748-0.13156-5.0144-0.19138m0.32059 7.8822c-6.3095 0.60282-9.858 1.1746-5.249 1.4975 1.1244 0.079 2.8226 0.16387 4.9284 0.25118 2.1384-0.061 3.8656-0.12679 5.0132-0.19137 4.7159-0.26912 1.3822-0.88152-4.6926-1.5573" fill="#976d28" stroke-width="1.1787"/>
<path d="m281.33 300.31c0.3264 4e-3 0.64698 7e-3 0.96292 0.0101-0.15565-0.012-0.46926-0.0144-0.96408-0.0101m-167.22 0.0101c0.31478-2e-3 0.6342-4e-3 0.96059-0.0101a14.494 14.925 0 0 0-0.96059 0.0101m349.98-0.63157c0.31361-4e-3 0.63187-0.0101 0.95943-0.018a12.765 13.145 0 0 0-0.95943 0.018" fill="#9e7835" stroke-width="1.1787"/>
<path d="m275.26 300.25 0.89671 0.0101c-0.14287-0.012-0.4379-0.0155-0.89671-0.0112m-155.03 0.0112 0.89555-0.0112a12.924 13.309 0 0 0-0.89555 0.0112m350.86-0.69134c-0.45881-1e-3 -0.75151 3e-3 -0.8909 0.0155l0.8909-0.0143" fill="#a27c3b" stroke-width="1.1787"/>
<path d="m167.45 262.81c6.011 0.57174 15.79 1.348 30.758 2.3922 14.97-1.0442 24.748-1.8204 30.761-2.3922h-61.519" fill="#9e7835" stroke-width="1.1787"/>
<path d="m177.45 262.81c4.5045 0.43419 11.205 0.98917 20.746 1.6984 9.5409-0.70928 16.242-1.2643 20.747-1.6984h-41.495" fill="#a58143" stroke-width="1.1787"/>
<path d="m395.18 270.35a562.33 579.06 0 0 0-15.019-0.35165c-4.7658 0.14352-11.707-0.14114-16.885 0.16266-15.238 2.1865-47.365 1.7307-74.277 7.2363 4.2675 2.1554 12.317 3.1314 28.984 4.7903 35.745 3.5046 42.689 7.7794 65.159 8.9396 27.029 0.66502 13.466-1.6602 48.407-5.9111 17.671-1.0729 35.375-2.7211 41.107-9.7553-11.476-6.6228-48.161 1.2559-77.476-5.1109" fill="#9e7835" stroke-width="1.1787"/>
<path d="m394.57 271.81c-4.9412-0.17583-10.419 0.64349-14.933 0.61001-4.4987 0.13037-8.9706-0.15549-13.865 0.12559-14.199 2.0393-34.89 5.9792-70.715 4.8609-8.2237-0.0622 17.93 2.7654 27.051 4.5631 33.406 3.3634 39.51 6.2005 60.565 7.3129 20.78-1.5537 15.114-1.0789 47.751-5.1396 16.607-2.0644 39.116-6.0151 36.186-8.5437 1.4589-5.3944-32.925 2.2821-72.039-3.788" fill="#a27c3b" stroke-width="1.1787"/>
<path d="m378.18 273.38c-15.207 1.6602-20.114 0.58609-39.983 5.5188-1.9096 5.9398 21.86 5.8608 41.278 8.1334 14.706-0.93772 47.676-1.2595 43.395-9.6046-20.846-4.5057-29.172-2.7115-44.69-4.0476m-359.96 0c-15.516 1.336-23.843-0.4581-44.689 4.0476-4.2814 8.3451 28.688 8.6657 43.395 9.6046 19.416-2.2726 43.186-2.1936 41.277-8.1334-19.866-4.9338-24.776-3.8586-39.983-5.5188" fill="#976d28" stroke-width="1.1787"/>
<path d="m378.21 274.89c-15.651 1.5717-27.791 1.1124-35.821 4.4722-3.8006 5.0308 20.363 5.5893 37 6.911 13.181-0.17941 47.57-1.6937 40.022-8.2937-8.7069-3.184-25.259-1.8492-41.198-3.0895m-360.05 0c-15.94 1.2403-32.49-0.0956-41.2 3.0895-7.5489 6.6 26.841 8.1143 40.022 8.2937 16.636-1.3217 40.799-1.8814 36.995-6.911-8.0286-3.361-20.168-2.9005-35.82-4.4734" fill="#a27c3b" stroke-width="1.1787"/>
<path d="m378.24 275.09c-8.4874 0.67579-26.546 3.8454-25.951 5.4805-2.6681 5.8919 13.736 3.1014 27.043 5.0104 13.073-0.28945 40.062-1.2439 35.585-6.6873-9.4979-3.471-28.065-3.3084-36.678-3.8036m-360.07 0c-8.6128 0.49518-27.179 0.33251-36.678 3.8036-4.4754 5.4434 22.513 6.3979 35.587 6.6861 13.305-1.9078 29.712 0.88272 27.042-5.0092 0.59471-1.6351-17.464-4.8047-25.951-5.4805" fill="#976d28" stroke-width="1.1787"/>
<path d="m378.29 275.72c-10.455 0.7966-24.396 3.7318-24.396 5.1336-1.3474 3.9878 14.012 2.501 25.346 3.8813 11.804-0.33252 34.923-1.3384 31.908-5.2867-6.68-3.5966-22.263-3.1541-32.858-3.7282m-360.22 0c-10.596 0.57412-26.179 0.13157-32.858 3.7282-3.0165 3.9483 20.104 4.9542 31.908 5.2867 11.334-1.3803 26.693 0.1076 25.345-3.8801 0-1.4018-13.941-4.337-24.395-5.1336" fill="#9e7835" stroke-width="1.1787"/>
<path d="m378.47 276.78c-6.809 0.63631-11.432 1.7236-15.558 3.4519-0.89787 2.7833 8.5466 2.9711 17.2 3.471 8.535-0.68058 22.447-1.0478 20.979-3.806-4.4766-1.6374-15.699-2.6254-22.622-3.117m-360.57 0c-6.9228 0.49159-18.146 1.4796-22.621 3.117-1.4705 2.7582 12.444 3.1254 20.977 3.806 8.6535-0.49997 18.097-0.68775 17.199-3.471-4.1235-1.7272-8.7488-2.8156-15.555-3.4519" fill="#976d28" stroke-width="1.1787"/>
<path d="m378.53 277.82c-5.5963 0.52867-9.5072 0.97242-13.023 2.4424-0.67138 2.0956 6.6789 2.6673 13.664 3.1457 6.867-0.62435 18.841-1.3492 17.737-3.4256-3.8122-1.3946-12.684-1.7523-18.379-2.1625m-360.66 0c-5.6939 0.41026-14.566 0.76789-18.376 2.1625-1.107 2.0764 10.866 2.8012 17.737 3.4244 6.9832-0.47724 14.333-1.049 13.662-3.1457-3.5172-1.4688-7.4269-1.9126-13.023-2.4412" fill="#9e7835" stroke-width="1.1787"/>
<path d="m378.73 279.75c-3.4486 0.67579-5.3373 1.2882-2.6623 1.5573 0.65046 0.0646 1.6296 0.13157 2.8435 0.19138a62.568 64.429 0 0 0 2.7947-0.25117c2.6158-0.32295 0.60284-0.89588-2.9759-1.4975m-361.07 0c-3.5787 0.60163-5.5917 1.1734-2.977 1.4975a62.503 64.362 0 0 0 2.7958 0.25117 67.383 69.387 0 0 0 2.8435-0.19138c2.675-0.26912 0.7852-0.88151-2.6611-1.5573" fill="#976d28" stroke-width="1.1787"/>
<path d="m258.73 298.61c12.526-3.3993 11.118 3.3718 32.52-0.36601 2.0954 0.1244 20.09 0.55618 22.879 0.20334-0.0256-3.7162 12.635-1.482 15.313-0.92697 20.96-4.9793 3.7228 2.4137 37.131-0.14712 27.149 4.3538 35.794-4.0846 53.175-0.732 43.61-2.745 13.516-8.3822 49.168-2.6769 36.491 1.5274 12.573-7.5138 46.462-0.21887 2.0641-9.4192 4.8123-51.09 4.8123-51.09s8.1657 0.12558 9.8499-1.5226c1.6842-1.647-4.6392-3.5763-4.6392-3.5763-8.837 0.0359-4.4406-3.4782-4.4789-9.2194-0.0325-4.2389 8.9938-55.463 8.9938-55.463 2.6716-20.64 1.6459-42.647-0.36589-52.355-2.2906-11.04 1.2103-37.329 0.86419-38.696 0 0 1.6796-9.4383-1.4508-11.441-3.1327-2.0023-6.3653-97.395-6.7335-100.32 0 0 6.3258 7.0796 10.347 4.2102 4.0224-2.8694 5.5638-15.561 5.5638-15.561-13.125-5.5391-1.5181 1.7403-39.311-4.1277-25.703-2.8682-17.675 2.9543-45.608-1.6243-4.5765-1.6446-2.7192-3.8921-44.963 4.4686 0-1.5346-13.758-3.556-15.309-2.6589-10.371 6.4924-23.138 0.42461-23.138 0.42461s-12.152 4.3107-11.829 0.83846c-20.785-3.6792-37.416-3.9949-39.247-1.1758-2.6437 4.0045-15.658 2.5704-16.697 0.3373-1.0616-6.4888-43.911 1.5884-59.521 3.3287-15.681-5.3668-23.225-3.062-27.681-2.1565-3.7959 0.54063-11.251 0.66024-16.114-1.5095-6.5569 0-3.7448 4.2581-12.933 0.4904-21.401-2.8048-30.381 0.69852-30.381 0.69852s-18.695 6.6514-29.056 0.15788c-1.5483-0.89707-10.023 2.885-10.023 4.4195-42.224-8.3595-49.798-6.661-53.146-3.8885 2.5426 15.087-2.344-2.5692-1.7772 21.215 1.7481 12.592-1.8527 0.57293-2.7819 11.463-2.5461 3.2306-2.5519-24.217-1.8004-25.68-2.6785-1.6147-2.6901-9.0065-2.6448-9.0424-19.772 5.49-9.7895-2.9735-35.489-0.10645-37.795 5.868-26.187-1.4114-39.311 4.1277 0 0 1.5402 12.692 5.5615 15.561 4.0224 2.8706 10.347-4.2102 10.347-4.2102-0.36705 2.922-3.5985 98.315-6.7323 100.32-3.1338 2.0011-14.317-1.9915-14.317-1.9915s-4.2815 1.9568-2.3498 5.9326c1.934 3.9746 10.261 10.334 10.261 10.334 1.2173-0.96405 4.954-2.8347 4.954-2.8347-0.34498 1.3695 3.1524 27.656 0.86303 38.696-2.0095 9.7063-3.0351 31.714-0.3624 52.356 0 0 9.0252 51.224 8.995 55.463-0.040658 5.7412 0.72829 14.317 0.72829 14.317s2.7471 41.671 4.8146 51.09c18.833-4.2054 12.498 1.5705 29.615-2.4089 26.251 0.29544 22.676 8.1119 35.296-3.4447 2.9805 13.428 9.1681 3.2653 30.717 8.7494 26.158 3.7557 7.3061-1.6817 25.517 0.34567 20.071 2.1386 28.79-5.307 27.608 0.38633 33.403 2.5596 16.165-4.8322 37.123 0.14712 2.6808-0.55379 9.1181-15.138 15.315 0.92816 2.79 0.35165 10.356-0.14712 13.2-0.17343 1.9967-6.7077-1.3311-4.2222 5.4186-7.0521 0-2.2845-1.2626-16.189 3.2756-14.229-0.93737 0.23923-1.1116 21.374 0.98499 21.25 21.403 3.7378 19.996-3.0333 32.52 0.36601" fill="#ecce88" fill-rule="evenodd" stroke-width="1.1787"/>
<path d="m268.23 283.06c3.3801 0 15.978 10.779 17.159 10.669 31.73-8.3475 24.399-2.0716 43.646-7.3906 46.211 11.03 30.393 1.9149 60.801 2.5034 8.7731 2.556 20.707-1.6865 20.707-1.6865 4.2977-0.20334 52.855-1.7284 52.855-1.7284 25.274-3.0237 10.485-15.468 30.467-12.851-2.1802 3.7509 5.6242 8.6728 7.298 8.6035 0 0 5.105-16.056 2.7482-24.113-4.681 0-22.728 5.9482 9.5572-18.989-1.1337-65.122 18.927-79.057 8.7824-115.59 0 0 0.453-57.233 0.5529-57.181-1.553-10.517-1.2882-33.036-3.394-82.174-1.8445-10.459-3.3952 6.7041-10.378 6.5043-5.9773-0.31816-10.263-8.3822-9.4701-14.056 4.5835-10.372 12.731 4.0775 15.526 0.19138 9.7639-17.634-7.9682-1.6841-13.889-11.964-2.1523-3.6146 35.57-0.63632 34.879-2.8945 0-2.2092-56.774-3.7988-60.609-3.4507-2.8504 0.25955 9.7756 12.234 1.4612 12.234-7.794-5.862-16.778 1.8671-28.485-11.571-0.34149-0.01196-30.86 2.5752-62.528 16.25-9.1251-1.4186 14.194-12.507 5.7589-13.928-16.677 13.195-38.629-4.8597-42.963-1.2738-28.762 7.332 3.6449-0.64589-53.683-1.6781-44.153 7.3081-6.1887 4.0775-39.043 1.1841-0.97686 0.0598-14.558 6.2986-29.183-1.1841-5.0248 10.727 2.8028 0.43059-31.266 2.4077-17.652 2.4687-19.645 2.3252-26.824-2.4077-22.127 8.8415-24.44 7.8894-42.931 2.9508-20.722 12.547-7.0901-3.8335-56.741-1.2116-12.849 33.879-1.3741 3.8143-6.27 74.07-5.1503 4.5846-2.6425-28.276-3.6728-31.086-8.9346-25.627-1.2336-16.993-7.9903-42.355-31.438 4.1959-0.9606-2.824-38.735-2.3683-9.1646-0.34686-59.576 8.0533-0.16726 7.3356-5.5557 1.8396 5.7984 6.9995 3.1002 9.2314-10.08-1.1817 8.9938 12.818-11.266 12.818 5.9843-12.078-6.1039-31.969-5.1689-2.5632-2.1094 49.135-5.9425 64.027-5.2618 77.844-5.6184 11.823-4.5451 21.223-4.616 21.618 0.84096 49.187 4.8274 30.572 1.7748 89.264 2.7436 15.578 11.929 57.619 9.2598 62.472 14.241 17.962 13.469-0.1196 24.34 24.436-4.2791 2.4986-14.256-1.0526-18.939-1.0526-2.3556 8.0568-7.8788 48.079 8.7952 20.249 15.219-4.3968 2.1024 14.962 34.261-8.8092 6.5012 3.2773 3.8459 10.672-5.0922 13.804 2.0199 4.6444 13.67 6.6814 15.237 5.1611 0 0 9.6071-28.042 11.615-11.207 18.021 14.906 9.6095 20.479 33.962 6.6909 19.243 2.1948 3.0398 20.489 28.354-2.7223 32.684 7.7889 14.347 19.215 31.201 5.2771 18.201-2.0621 30.288 7.4038 22.288-8.552 31.922 10.744 21.119 25.637 41.12-10.432 4.048 27.133-0.71087 18.624 22.028 14.707 17.642 9.3414 7.6104 12.958 19.034 0" fill="#f5d78f" fill-rule="evenodd" stroke-width="1.1787"/>
<path d="m304.83 280.74c3.3591-1.0677 11.758-4.106 16.529-5.4187l23.208 10.317c1.0226 0.30918 14.613 0.6312 15.528 0.96286 6.0247-3.6792 20.471-7.3926 23.142-6.5121 0 0 34.85 2.6339 37.223 2.9848 0.25479-1.4903 13.7-7.9264 18.553-8.687 3.9692-4.6741 19.526 4.8977 19.526 4.8977s10.299-8.9202 12.966-8.9202c1.9515 0 3.1569-17.839 3.1569-17.839s15.844-12.913 22.933-14.634c1.1254-8.4496 6.2383-30.108 10.024-49.225 0 0 1.9858-88.23 1.8292-91.488-13.577-30.774 2.236-10.699-1.988-75.834-1.3425-2.16-18.704 5.4529-19.902 4.2793-5.8545-9.2605 7.2472-7.2738-3.1718-20.86-5.5917-1.118-21.858 3.4502-23.811 1.3341-51.278 1.2528-15.41-10.26-47.535-4.979-12.903 3.0287-31.466 11.128-31.466 11.128s-17.278-6.9325-19.387-9.2476c-0.23766 0.20862-30.881 3.3443-40.835-5.6434-2.7856-0.19792-17.895 4.8496-23.982 6.2318 0 0-28.532-1.4282-29.252-1.4871 0.17824 3.248-18.746-0.90936-18.564-4.1574-0.72324 0.058841-26.594 7.9649-28.393 7.9649-1.4865 0-5.61-7.6119-5.61-7.6119-6.0898-1.3822-11.823 9.2391-12.177 9.3396-2.2908 0.64832-15.701-9.0668-18.487-8.87-15.728 16.157-30.878 1.8562-31.115 1.6475-2.1092 2.313-27.291 1.6443-27.291 1.6443-15.867-6.2339-11.784 4.8699-24.677 1.8401 3e-3 0.83233-26.298-7.2717-29.311-7.2717-9.1667 0 5.5574 19.699 0.07199 21.001-9.8214 7.3893-8.1476 45.348-8.1476 45.348-13.662 3.0565 4.7279 1.9546-3.0358 11.289-10.554-6.2457-4.0424-30.156-4.0424-30.156-1.4111-3.4898-10.606-45.99-10.606-45.99-0.01485-0.28885-13.048 8.5908-20.645 2.7056-3.4482-0.60339 2.6233 7.0705-7.1341 10.937 0.65239 11.094-12.126 14.32-14.813 14.596-0.035416 0.77563-5.7482 58.857-5.7551 58.844-0.15996 1.1415-5.5917 13.429-6.0727 14.405-0.15767 3.2576 1.9675 83.729 1.9675 83.729 3.7841 19.118 12.086 41.17 13.213 49.621 7.0873 1.7203 8.8274 7.9927 10.05 13.665 9.9562-2.0434 12.905 10.115 12.905 10.115s8.0436 12.175 9.9916 12.175c15.83-13.769 2.9786-11.338 17.929-16.111 2.8598-0.55952-0.47987 17.081-0.47987 17.081 1.7207 0.78846 9.3804-14.376 11.231-14.376 1.2397 17.669-5.065 2.7249 2.2794 23.667 0.2765 2.1086 16.666 2.4125 16.921 3.9017 5.3883-13.114 21.526 4.3232 23.209 4.1563 0.21595-0.029-3.4734-10.68-2.757-10.68 2.9981 0 18.296 4.7458 18.296 4.7458 2.6713-0.87938 5.458-4.7094 8.0482-4.7094 7.3763 0 7.4997 8.0794 13.52 11.76 0.91405-0.33378 14.497-2.3975 15.52-2.7067l24.322-16.179c4.7713 1.3127 13.844 13.465 17.205 14.534 13.662-16.228 7.3021-24.325 38.554-3.6866 4.1566-0.29311 19.837-24.339 60.587 0.43331" fill="#fde196" fill-rule="evenodd" stroke-width="1.1056"/>
<path d="m530.41 81.823s1.6796-9.4371-1.4519-11.439c-3.1315-2.0034-6.3595-97.285-6.7323-100.32 1.5855 2.7988 6.8601 6.8978 6.8601 6.8978s2.2197 1.7559 12.235-1.5238c10.011-3.2809 9.6815-10.308 9.6815-10.308 10.69 10.176 0.93272 85.238 1.4554 96.97 0.0418 0.99395 1.8445 1.6913 5.443 17.622 0.093 10.197-0.91065 157.52-2.7877 161.91-1.1732 13.155 6.7881 38.86-2.0257 53.582-5.8228 8.3798-22.743 18.801-38.873 1.5657 0.42165-0.33968 0.80727-1.4281 1.1592-3.0369 2.064-9.418 4.8111-51.089 4.8111-51.089s4.4371 2.8539 8.8544 2.8347c4.4208-0.0203 13.871-11.211 11.536-9.3247-2.3347 1.885-6.3444 1.3516-15.181 1.3899-8.837 0.0359-4.4441-3.5141-4.4801-9.2553-0.0314-4.2378 8.9904-55.463 8.9904-55.463 2.675-20.64 1.6482-42.647-0.36357-52.353-2.2882-11.039 1.2185-37.275 0.86884-38.66" fill="#a58143" fill-rule="evenodd" stroke-width="1.1787"/>
<path d="m525.39 237.55c8.8382-0.0394 12.848 0.49638 15.181-1.3887 2.3347-1.8874-7.1156 9.3032-11.536 9.3235-4.4162 0.0191-8.8544-2.8347-8.8544-2.8347s8.168 0.12439 9.8522-1.5226c1.6831-1.647-4.6427-3.5775-4.6427-3.5775" fill="#6f5a27" fill-rule="evenodd" stroke-width="1.1787"/>
<path d="m525.39 237.55c8.8382-0.0394 8.0658 7.9145 3.6449 7.9348-4.4162 0.0191-8.8544-2.8347-8.8544-2.8347s8.168 0.12439 9.8522-1.5226c1.6831-1.647-4.6427-3.5775-4.6427-3.5775" fill="#86662b" fill-rule="evenodd" stroke-width="1.1787"/>
<path d="m529.04 245.49c-4.4174 0.0203-8.8556-2.8347-8.8556-2.8347s8.168 0.12559 9.8522-1.5226c0 1.8396 1.1011 2.7127-0.99661 4.3574" fill="#a58143" fill-rule="evenodd" stroke-width="1.1787"/>
<path d="m532.42 69.345c0.31827 1.2535-1.8875 48.665 0.1754 58.63 1.8143 8.7602 1.5123 27.579-0.9002 46.207 0 0-6.2665 42.816-6.2375 46.644 0.036 5.1791-6.773 16.471 0.31825 16.723 15.091 0.38514 13.725-1.1458 15.414-1.8109-3.5903 5.2855-9.6977 10.303-12.452 9.9383-3.9911 0.0168-4.9017-0.89228-4.9017-0.89228s-0.83166 31.105-2.6948 39.605c-0.31478 1.4509-2.5542 14.56-1.6413 15.879 14.48 11.078 27.935 2.3647 33.252-5.215 3.6194-14.614-4.7461-49.056 0.1812-60.474 1.6947-3.9626 2.9015-135.17 2.8214-144.37 0.32755-8.0999-5.2154-26.194-6.0261-27.534 0.48204-11.226 5.6648-79.982 1.1093-93.328 0 0-1.8701 3.8-10.908 6.5306-9.139 2.763-11.366 1.7594-14.738-0.34687 0.33917 2.7343 0.79798 85.26 7.2283 93.815" fill="#b39052" fill-rule="evenodd" stroke-width="1.1787"/>
<path d="m535.66 74.235c0.27065 1.0741-0.61096 53.014 1.1592 61.558 0.93853 4.526 0.12777 22.448-2.3498 41.574 0 0-4.8727 35.765-4.8471 39.049 0.0314 4.4399-6.7985 21.033 0.0395 21.003 5.4941-0.0251 9.2575-0.58011 10.036-1.0884 0.70041-0.39471 1.4171-1.1148 2.0745-0.93055-9.225 12.914-14.317 10.664-14.317 10.664s0.0895 14.064-1.51 21.35c-0.27297 1.2463-0.74921 35.527-1.0779 35.791 10.95 4.9961 20.749-1.5561 24.26-4.9686 3.5195-14.681-4.6055-57.409 0.76197-68.484 1.4543-3.3981 3.2988-117.52 3.2256-125.42 0.36821-25.307-4.2605-38.992-5.522-39.355-4.4487-8.8845 8.4374-68.166 0.489-92.135-1.2545 0.74277-4.3256 2.2427-8.5826 3.4926-4.1444 1.22-7.1168 1.6518-10.27 1.5011 0.30665 2.4675-1.5681 77.873 6.4315 96.396" fill="#cfaf6f" fill-rule="evenodd" stroke-width="1.1787"/>
<path d="m538.4 76.191c0.23231 0.92099 1.4566 60.174 2.9747 67.496 1.3323 6.4362-3.5927 23.233-5.3663 36.926 0 0-1.0001 32.085-0.98034 34.897 0.0291 3.8084-9.5967 21.55-1.8585 21.55 5.8658-0.0275 6.73-2.0956 8.8846-1.8862-2.9596 6.6311-10.285 11.731-10.285 11.731s0.33221 6.2256-1.0372 12.475c-0.23231 1.0657-0.3113 43.926-0.5889 44.151 3.2477 2.5477 10.531 0.3684 13.863-2.6876 5.8472-9.7673-3.5311-65.51 3.8714-78.384 1.2487-2.9125 2.1465-99.091 2.0861-105.86 0.31361-6.2149 0.57613-44.664-4.6195-48.01 0 0-2.3138-13.62-2.3138-16.609 0.31361-7.1406 9.6338-52.372 2.3904-77.187 0 0-9.9509 2.9113-12.885 3.538 0.27412 2.2283-1.388 82.985 5.8646 97.856" fill="#e6c682" fill-rule="evenodd" stroke-width="1.1787"/>
<path d="m541.14 70.797c-0.24392 2.7797 2.5078 29.235 2.5078 29.235 0.22302 0.87554-1.812 39.579-0.36588 46.533 1.2661 6.1156-1.9619 21.422-3.6473 34.429 0 0-0.17306 31.976-0.15332 34.648 0.0267 3.6182-9.1437 16.128-5.522 20.753 5.5708-0.0239 6.0493-1.4987 8.096-1.2978 1.0512 1.0262-6.6766 10.307-6.6766 10.307-1.0338 6.2029-0.72016 6.3237-2.0443 12.356-0.22186 1.0143 2.9828 41.437-0.56568 45.774 1.5553 1.116 5.9355 0.41026 7.4629-0.78822 5.5522-9.2817-1.6366-67.974 5.328-82.291 1.1859-2.7654 1.0012-93.809 0.94317-100.24 0.29968-5.9039-2.6088-46.137-3.3174-48.139 0 0-3.2036-23.069-3.2036-25.767-0.94201-8.253 9.4782-47.223 2.7099-70.206 0 0-1.5425 0.57412-6.5 1.8193 0.24508 2.0118-3.4231 85.123 4.9482 92.871" fill="#f5d78f" fill-rule="evenodd" stroke-width="1.1787"/>
<path d="m522.21-29.934s6.3246 7.0796 10.346 4.2102c4.0236-2.8694 5.5638-15.561 5.5638-15.561 5.9668-0.26314 12.866 6.417 12.866 6.417s0.32871 7.0282-9.6826 10.308c-10.014 3.2809-12.233 1.525-12.233 1.525s-5.2757-4.099-6.8601-6.899" fill="#6f5a27" fill-rule="evenodd" stroke-width="1.1787"/>
<path d="m532.57-25.736c4.0224-2.8682 5.5638-15.561 5.5638-15.561 5.9657-0.26314 8.6059 6.85 8.6059 6.85s3.3069 4.0643-6.7079 7.3452c-10.013 3.2809-11.484 4.2365-7.4618 1.3659" fill="#86662b" fill-rule="evenodd" stroke-width="1.1787"/>
<path d="m532.57-25.736c4.0224-2.8682 5.5638-15.561 5.5638-15.561 5.9657-0.26314 4.6183 8.5341 4.6183 8.5341s-2.8284 4.3035-10.182 7.027m-563.19 90.524c1.3381 1.0801 1.6053 4.3645 1.6053 4.3645s-5.5638 0.19855-7.5082 1.7343c-1.9409 1.5358-4.077 6.0941 4.1816 10.325 8.2539 4.2342 7.8253 5.0666 14.502 3.4471 1.2196-0.96286 4.9551-2.8347 4.9551-2.8347-0.34962 1.3851 3.1571 27.622 0.86884 38.66-2.0118 9.7062-3.0386 31.713-0.36472 52.353 0 0 9.024 51.225 8.9927 55.463-0.039488 5.7412 0.72713 14.355 0.72713 14.355s2.7471 41.671 4.8134 51.089c0.35195 1.6087 0.73758 2.6972 1.1581 3.0369-16.13 17.236-32.835 6.7734-38.9-1.4174-8.8126-14.724 3.5044-43.192-1.5054-54.896-1.8771-4.3872-3.3754-150.19-3.2848-160.39 0.15332-16.978 8.0286-7.9612 9.757-15.292" fill="#a58143" fill-rule="evenodd" stroke-width="1.1787"/>
<path d="m-39.045 75.022c2.5716 3.6182 2.3288 4.038 9.996 7.9444 4.7063 2.6194 5.8381 3.2856 11.179 1.6889 1.4584-0.80736 3.0306-1.6123 3.0306-1.6123-0.33467 1.3181 1.4584 26.431-0.05345 36.918-1.9093 9.2194-1.8442 35.117 0.69955 54.727 0 0 8.5597 46.07 8.5318 50.095-0.038342 5.4554 2.2974 72.472 6.4227 74.284-15.01 12.921-29.499 4.8489-36-3.9112-5.8939-11.616 3.8894-39.543 0.48574-57.616-1.7838-4.1684-3.8429-141.96-3.7546-151.65 0.1441-2.3503-0.28819-5.1779-0.53454-10.869" fill="#b39052" fill-rule="evenodd" stroke-width="1.1789"/>
<path d="m-36.127 79.517c2.4868 1.2511 4.0869 2.3982 6.9165 3.8179 2.6611 1.5752 4.9236 2.4496 6.4784 2.4496 1.6466 0.25357 5.1014-0.95449 5.1014-0.95449-0.28354 1.1315 1.8163 39.049-0.04881 48.041-1.6385 7.9061-0.36024 26.197 1.8174 43.009 0 0 5.5546 37.704 5.529 41.157-0.03137 4.6743 2.2079 28.663 2.2079 28.663s-0.29051 18.703 1.3921 26.376c0.28819 1.3109 0.12085 30.251 0.46482 30.529-13.085 7.1598-24.659-1.5154-27.407-6.8524-2.0824-13.196 4.3135-55.867 0.23241-65.4-1.5316-3.5739-3.7534-122.07-3.6779-130.38-0.38696-7.631 0.0581-19.721 0.99355-20.453" fill="#cfaf6f" fill-rule="evenodd" stroke-width="1.1789"/>
<path d="m-32.917 81.792c2.0615 1.2726 2.8935 1.5525 5.1688 2.6996 2.1277 1.0549 3.3537 1.3707 4.7877 1.5812 1.1946 0 2.2358-0.16625 2.2358-0.16625-0.25914 1.0203 1.6443 44.741-0.03951 52.858-1.4781 7.1335 1.1376 24.849 3.105 40.021 0 0 3.198 34.313 3.1736 37.432-0.02905 4.2186 1.85 40.58 3.3676 47.503 0.2603 1.1817-3.4432 40.667-3.1352 40.918-3.4827 0.49996-10.862 0.10168-15.793-5.5498-3.4048-12.012 3.8324-62.579-1.6269-73.43-1.3805-3.2258-2.388-109.49-2.3218-116.99-0.34862-6.8847-0.63099-27.741 1.0784-26.882" fill="#e6c682" fill-rule="evenodd" stroke-width="1.1789"/>
<path d="m-29.242 84.363c2.3927 1.3922 1.9592 0.89946 2.7727 1.3659 0.53919 0.25596 1.1249 0.43537 1.5618 0.53345 0.24403 2.7809 0.93313 12.872 0.93313 12.872-0.22079 0.87434-0.36256 40.473-1.8082 47.427-1.2666 6.1156 3.2863 21.422 4.9736 34.429 0 0 0.83203 31.692 0.81227 34.364-0.02673 3.6194 2.1196 30.047 2.1196 30.047 1.0342 6.2041 0.72047 6.3237 2.044 12.356 0.22195 1.0143-3.3153 45.781-3.0504 45.996-1.0052-0.27271-4.6645-0.92457-6.1937-2.123-5.5558-9.2793 3.3676-66.339-3.5989-80.653-1.1853-2.7666-2.7285-94.333-2.6716-100.76-0.29981-5.9039 1.3956-33.853 2.1056-35.855" fill="#f5d78f" fill-rule="evenodd" stroke-width="1.1789"/>
<path d="m-30.642 64.787c0.16036-0.67579 0.26727-1.4939 0.31259-2.4855 0.5206-11.734-13.863-86.992-3.1712-97.169 0 0-0.33002 7.0282 9.6869 10.308 10.017 3.2809 12.24 1.5238 12.24 1.5238s5.2792-4.0978 6.8631-6.8978c-0.37186 3.0321-3.6 98.315-6.7353 100.32-3.1352 2.0011-14.323-1.9927-14.323-1.9927l-4.8725-3.6038" fill="#a58143" fill-rule="evenodd" stroke-width="1.1789"/>
<path d="m-29.97 61.71c0.44158-11.817-11.418-82.028-3.7662-94.773 0 0 0.89943 5.6838 10.415 8.6692 9.5753 3.0034 11.724 1.3588 11.724 1.3588s3.0167-2.0034 5.1804-4.4758c0.26611 10.602-5.5244 87.823-5.0352 96.163-2.9795 1.9018-14.341-0.26314-14.341-0.26314s-4.1776-2.8156-4.1776-6.679" fill="#ad894a" fill-rule="evenodd" stroke-width="1.1789"/>
<path d="m-29.095 61.114c1.9034-5.7998-10.139-68.339-4.2752-91.766 0 0 1.8732 3.8 10.914 6.5306 9.143 2.763 10.408 1.7594 13.782-0.34686 0 18.91-6.4157 81.69-5.3431 92.059-2.8284 1.8085-10.916 0.36242-10.916 0.36242s-4.1613-3.1696-4.1613-6.8416" fill="#c2a062" fill-rule="evenodd" stroke-width="1.1789"/>
<path d="m-26.849 58.234c1.1586-10.133-12.178-60.504-3.7383-85.389 1.2539 0.74277 4.116 2.0609 8.3726 3.3108 4.1485 1.22 6.5086 1.8348 9.6625 1.6829 4.2473 14.105-6.3367 71.282-3.6814 88.83-2.5554 1.6315-8.3528 0.58848-8.3528 0.58848s-2.2625-5.7113-2.2625-9.0245" fill="#cfaf6f" fill-rule="evenodd" stroke-width="1.1789"/>
<path d="m-24.719 51.984c1.0458-9.1453-16.932-54.915-2.4194-77.187 0 0 0.882 0.35404 4.7063 1.5334 2.3636 0.75952 2.8912 1.0705 5.8277 1.6961 7.2349 13.78-5.7278 57.455-1.1783 84.834-1.334 2.9567-6.1821 3.3801-6.1821 3.3801s-0.75533-11.267-0.75533-14.255" fill="#e6c682" fill-rule="evenodd" stroke-width="1.1789"/>
<path d="m-23.989-23.469s-1.3236-0.27989 3.6361 0.96644c9.2139 19.701-7.2466 39.028-0.0093 82.717-1.4142 2.8814-3.6349 6.7196-2.4763-3.0369 1.1574-9.7565-14.135-58.412-1.1505-80.649" fill="#f5d78f" fill-rule="evenodd" stroke-width="1.1789"/>
<path d="m-4.734-29.934s-6.3274 7.0796-10.352 4.2102c-4.023-2.8694-5.5639-15.561-5.5639-15.561-5.9706-0.26314-12.873 6.417-12.873 6.417s-0.33002 7.0282 9.6857 10.308c10.018 3.2809 12.24 1.525 12.24 1.525s5.2792-4.099 6.8631-6.899" fill="#6f5a27" fill-rule="evenodd" stroke-width="1.1789"/>
<path d="m-15.091-25.736c-4.0207-2.8682-5.5639-15.561-5.5639-15.561-5.9695-0.26314-8.6085 6.85-8.6085 6.85s-3.3118 4.0643 6.7062 7.3452 11.492 4.2365 7.4662 1.3659" fill="#86662b" fill-rule="evenodd" stroke-width="1.1789"/>
<path d="m-30.642 64.787c1.3387 1.0801 1.606 4.3645 1.606 4.3645s-5.5662 0.19616-7.5115 1.7343c-1.9418 1.5358-4.0788 6.0941 4.1834 10.325 8.2575 4.2342 7.8287 5.0654 14.508 3.4471 0 0-8.3307-6.3596-10.264-10.334-1.9325-3.9746 2.3508-5.9326 2.3508-5.9326l-4.8725-3.6038" fill="#6f5a27" fill-rule="evenodd" stroke-width="1.1789"/>
<path d="m-15.091-25.736c-4.0207-2.8682-5.5639-15.561-5.5639-15.561-5.9695-0.26314-4.6226 8.5329-4.6226 8.5329s2.8284 4.3047 10.187 7.0282" fill="#a58143" fill-rule="evenodd" stroke-width="1.1789"/>
<path d="m-30.642 64.787c1.3387 1.0801 1.606 4.3645 1.606 4.3645s-5.5662 0.19616-7.5115 1.7343c-1.9418 1.5358 12.012 15.39 18.692 13.772 0 0-8.3307-6.3596-10.264-10.334-1.9325-3.9746 2.3508-5.9326 2.3508-5.9326l-4.8725-3.6038" fill="#86662b" fill-rule="evenodd" stroke-width="1.1789"/>
<path d="m-29.036 69.15s-8.1925 10.603 11.179 15.506c0 0-8.3296-6.3584-10.264-10.334-1.9325-3.9746 2.3508-5.9326 2.3508-5.9326l-3.2654 0.76071" fill="#a58143" fill-rule="evenodd" stroke-width="1.1789"/>
<path d="m38.021 230.06c2.1756-8.3882-8.729-9.6883-7.4676-11.578 4.2164-6.3249 14.852-4.5404 11.649-6.838-4.9714-3.5643-11.36-4.8489 4.163-11.836 12.281 4.6576 14.411 10.097 14.33-3.0476-5.0585-7.8583-6.3931-11.271 0.49946-16.224 3.4498-2.4783 6.1527 5.5355 17.708 3.7067 3.883 0.84683-0.13822 23.18-0.13822 23.18s-3.3917 9.4156 7.4316 6.0438c10.822-3.3706 21.874-13.982 22.661-1.6626 1.654 25.914 17.322 7.4468 13.295 14.713-4.0294 7.2662-9.5711 0.16148-13.599 7.4277-4.0271 7.265-6.0424 10.899 6.1434 15.52 12.186 4.6205-1.6459 7.7184 25.245 9.8498 24.757 0.29304 30.721 18.41 15.924 12.798-8.5606 8.485-15.609 1.5549-25.62-2.2415-11.851-11.734-22.391-9.6764-27.605-21.46-4.2083-9.5113-1.7923-13.872-5.6103-12.682-3.8215 1.1901-7.4455 7.7291-7.4455 7.7291s-9.0717 22.064-7.0424 7.0031c2.0281-15.06 3.2605-30.369-13.102-11.027-11.936-17.365-13.059-12.086-25.792-8.1202-12.734 3.965-5.6254-1.2535-5.6254-1.2535" fill="#edd58a" fill-rule="evenodd" stroke-width="1.1787"/>
<path d="m64.414 189.34c-0.86303 0.67698-3.1385-4.1767-3.5032-3.5201-1.0094 1.8204 3.2686 6.8117 6.658 12.083 0 0-0.85954 10.337-7.3828 10.941-1.2429 0.11602 5.9785 4.4219 4.9017 4.9351-3.1129 1.4856-9.9602-5.9996-13.414-7.722-1.4345-0.71406-3.2663-4.0141-5.2862-4.8645-3.0746 1.47-0.67137 4.1169-1.3764 4.6671 0.4379 0.30261-2.8957 1.409-2.4706 1.6769 10.779 6.7627-5.673 5.4278-3.0502 7.1287 2.0745 1.3432-1.8817 1.8085 8.8115 8.912 1.0431 0.69134 13.439-0.80976 21.506 9.7864 4.6183-4.7736 8.7604-7.3942 12.924-6.1 3.9516 1.2284 5.1921 4.9518 4.9598 11.913 1.769-2.4819 11.541-7.1729 13-6.4577 1.3962 0.68178 3.5613 0.85282 4.1363-0.1842 1.6029-2.8909 3.6542-4.2904 5.6207-4.9877-3.3569-2.6111-20.278 6.1216-20.786-1.8085-0.09296-1.476 8.8335-7.6729 8.6674-8.0353-1.4914 0.26434 1.2278-6.4026-0.9815-5.2975-2.9619 1.4796-6.2294 5.0152-9.7709 4.233-5.9657-1.3157-11.77-0.11006-17.374 2.1601-4.2536 1.7248 7.1156-17.586 14.473-16.605 1.2614-7.0378-10.852-2.4616-11.27-6.0331-6.5 0.23921-8.808-6.7089-8.9927-6.8189m82.765 74.919c-6.7288 0.47605-11.829 2.7187-15.565 1.7906 0.38099 0.34207 0.76197 0.70569 1.1453 1.0693 2.0385 0.81335 1.8318 3.8394 3.6414 4.7066 7.413 3.5524 14.705-1.3492 8.2702-4.9446l6.1852 1.1925 8.003 3.8968c1.661 0.62795 1.6064-2.0668 2.4973-1.9759-1.6761-1.2104-5.6091-5.6168-14.178-5.7352m-24.614-0.48562c0.66092 0.33013 4.9145 0.091 2.5078-5.3513 0.26948 0.33131-4.6497-3.1074-5.4488-0.4904-0.82818 2.7151-1.0686-6.9947-4.3604-8.2434-1.7934-0.68177-5.5894 1.4855-6.9077 0.78702-4.3523 0.52628 10.131 11.265 14.209 13.298" fill="#deca81" fill-rule="evenodd" stroke-width="1.1787"/>
<path d="m32.83 194.44c-0.68531 0.30021-2.6634 3.4543 4.1932 4.5212-0.4832 0.0227 7.9008 0.18539 5.6288-1.7224-2.3591-1.9795 5.4778 0.90902 8.4862-0.79779 1.6378-0.92816 5.7438-1.171-6.2108-9.4754-12.47 1.0561 1.0454 7.6215-12.097 7.4756m64.918 30.933c0.76314-0.1029 4.0735 2.7558 7.19-2.8658-0.0872-0.0168-0.1754-0.0216-0.25554-0.0538-7.7661-2.9448-2.5229-8.2494-5.3803-7.5928-1.9072 0.44016-5.9703 2.3527-9.0624 7.9301-1.596 2.8766 2.7912 3.2091 7.5071 2.5836m-51.822-6.7986c-0.55522 0.13278-3.3371-1.7654-5.0272 2.6721 0.06621 7e-3 0.13242 2e-3 0.1963 0.0216 6.1039 1.6386 2.7947 5.9996 4.8471 5.2963 1.3683-0.46647 4.1781-2.196 5.8553-6.6 0.86535-2.2726-2.4346-2.2008-5.8716-1.3898" fill="#deca81" fill-rule="evenodd" stroke-width="1.1787"/>
<path d="m172.52 255c-24.339-0.43417-23.801-1.4042-40.05-7.5652-16.247-6.1622-17.216-17.083-4.3639-9.8629 12.852 7.2208 6.6998 10.756 6.6998 10.756s62.05 7.1072 37.713 6.6718m-116.04-17.88s-1.1035-3.501-7.593 2.3958c-6.4884 5.8967 2.6855 7.2363 7.6011-0.76072 0.41816-0.67818-0.0093-1.635-0.0093-1.635m6.8833 7.8966s3.6728-1.4234 0.66556-6.2735c-3.0061-4.8478-7.7498 3.3012-2.1907 6.5007 0.47275 0.2751 1.5251-0.22725 1.5251-0.22725" fill="#edd58a" fill-rule="evenodd" stroke-width="1.1787"/>
<path d="m129.71 245.83s3.6705-1.4257 0.66556-6.2747c-3.0084-4.8489-7.751 3.3012-2.193 6.4996 0.47624 0.27271 1.5274-0.22486 1.5274-0.22486m-66.58-17.972s3.674-1.4269 0.66673-6.2759c-3.0072-4.8478-7.751 3.2988-2.1918 6.5007 0.47275 0.27271 1.5251-0.22606 1.5251-0.22606m79.149 16.601s3.818 1.0824 5.7044-4.1708c1.8852-5.2532-8.2969-2.0752-6.9832 3.4519 0.11148 0.47365 1.2777 0.71765 1.2777 0.71765m15.661-12.305s1.7772 1.4927 1.8166-3.6206c0.0395-5.1145-3.8215-2.9615-2.4636 2.7618 0.11615 0.48801 0.64698 0.85879 0.64698 0.85879m-0.93272 11.826s-1.7249 1.3516 1.3334 3.495c3.0584 2.1422 3.5543-3.0118-0.51689-3.8598-0.34846-0.0717-0.81656 0.3648-0.81656 0.3648m-84.72-28.151s-1.7237 1.354 1.3358 3.4962c3.0572 2.141 3.5543-3.0106-0.51805-3.8586-0.34846-0.0717-0.81656 0.36242-0.81656 0.36242m-18.46 15.621s0.67602-0.82888-1.8678-0.97122c-2.5438-0.14233-1.3288 1.7858 1.4682 1.2643 0.23812-0.0443 0.39957-0.29305 0.39957-0.29305m0.08712-46.502s0.67602-0.82889-1.8689-0.97003c-2.5438-0.14234-1.3276 1.7846 1.4682 1.2631 0.23812-0.0442 0.40073-0.29304 0.40073-0.29304m-25.459 48.829s0.67602-0.82769-1.8701-0.97002c-2.5438-0.14353-1.3265 1.7846 1.4694 1.2631 0.23695-0.0442 0.40073-0.29304 0.40073-0.29304m-4.4034-4.1193s-3.013-0.0682-4.7728 2.4364c-1.7551 2.5058 6.5685 0.0191 5.7682-2.2606-0.06853-0.19495-0.99544-0.17582-0.99544-0.17582m-8.3991 9.4934s2.4207-0.65306-0.21024-3.9052c-2.6332-3.2498-5.0759 1.5597-0.83515 3.9447 0.3624 0.20335 1.0454-0.0394 1.0454-0.0394m21.698-27.577c0.0058-0.16147 0.01394-0.32294 0.02323-0.48441-9.8987 2.4639-4.9296-4.5966-17.141 5.7317-11.917 10.083 10.714-1.1518 17.117-5.2472m-17.176 11.853-0.2869 0.14113c3.1373 2.6792-1.8434 3.1338 6.2921 4.1839 7.9403 1.025-2.5124-3.3658-6.0052-4.325m47.36-16.072c-0.09524 0.0478-0.19166 0.0933-0.2869 0.13994 3.1385 2.6792-1.841 3.135 6.2956 4.1851 7.9391 1.0227-2.5147-3.367-6.0087-4.3251m33.362-18.329c-0.22186 0.13995-4.235 3.2869-4.4568 3.4244 4.5486 3.9686-4.9249 10.181 9.9103 5.5618 6.7741-2.1111 5.5022-8.4181-5.4523-8.9862" fill="#edd58a" fill-rule="evenodd" stroke-width="1.1787"/>
</svg>
